<?xml version="1.0" encoding="utf-8"?>
<!-- Generator: Adobe Illustrator 19.0.1, SVG Export Plug-In . SVG Version: 6.00 Build 0)  -->
<svg version="1.1" id="shipping_1_" xmlns="http://www.w3.org/2000/svg" xmlns:xlink="http://www.w3.org/1999/xlink" x="0px"
	 y="0px" viewBox="0 0 128 128" style="enable-background:new 0 0 128 128;" xml:space="preserve">
<style type="text/css">
	.st0{display:none;}
	.st1{display:inline;}
	.st2{fill:#000;}
	.st3{display:inline;fill-rule:evenodd;clip-rule:evenodd;fill:#000;}
</style>
<g id="row3_1_">
	<g id="ship" class="st0">
		<g class="st1">
			<path class="st2" d="M101.3,40.9H76.4v13.5h24.8V40.9z M101.3,56.3H76.4v13.5h24.8V56.3z M101.3,25.5H76.4V39h24.8V25.5z
				 M74.5,40.9H49.7v13.5h24.8V40.9z M74.5,56.3H49.7v13.5h24.8V56.3z M103.2,40.9v13.5H128V40.9H103.2z M103.2,69.8H128V56.3h-24.8
				V69.8z M42,56.3h-5.7v-25h-3.8v25h-5.7V40.9h-7.6V23.6h-3.8v17.3H7.6v30.8H0l21,32.7h86l21-32.7H42V56.3z M22.9,48.6H11.5v-3.8
				h11.5V48.6z M38.2,64h-9.6v-3.8h9.6V64z"/>
		</g>
	</g>
	<g id="forklift" class="st0">
		<g class="st1">
			<path class="st2" d="M53.1,62.4H40.6V21.2c0-3.5,2.8-6.3,6.2-6.3h25c3.4,0,6.2,2.8,6.2,6.3v44.4c0,0.4,0,0.7-0.1,1h8.3V5.4H30.6
				v61.3h26.6L53.1,62.4z M21.9,87.8c-8.6,0-15.6,7.1-15.6,15.8c0,8.7,7,15.8,15.6,15.8c8.6,0,15.6-7.1,15.6-15.8
				C37.5,94.9,30.5,87.8,21.9,87.8z M21.9,110c-3.4,0-6.2-2.8-6.2-6.3c0-3.5,2.8-6.3,6.2-6.3c3.4,0,6.2,2.8,6.2,6.3
				C28.1,107.1,25.3,110,21.9,110z M84.3,87.8c-8.6,0-15.6,7.1-15.6,15.8c0,8.7,7,15.8,15.6,15.8c8.6,0,15.6-7.1,15.6-15.8
				C99.9,94.9,92.9,87.8,84.3,87.8z M84.3,110c-3.4,0-6.2-2.8-6.2-6.3c0-3.5,2.8-6.3,6.2-6.3c3.4,0,6.2,2.8,6.2,6.3
				C90.5,107.1,87.7,110,84.3,110z M84.3,84.6c0.7,0,1.3,0,2,0.1V66.6H78c-0.5,3-3.1,5.3-6.2,5.3h-9.4l-5.2-5.3H0v38.9h3.2
				c-0.1-0.6-0.1-1.3-0.1-1.9c0-10.5,8.4-19,18.7-19c10.3,0,18.7,8.5,18.7,19c0,0.6,0,1.3-0.1,1.9h25.2c-0.1-0.6-0.1-1.3-0.1-1.9
				C65.6,93.1,73.9,84.6,84.3,84.6z M100.9,58.4v-53h-9v77.9h9V67.7l27.1,0v-9.4H100.9z"/>
		</g>
	</g>
	<g id="ship_x5F_container" class="st0">
		<g class="st1">
			<path class="st2" d="M89.6,37.1l-10.2,2.6L128,55v-5L89.6,37.1z M53.8,39.7l-2.6-5.1L0,55v58.9h128V55H12.7L53.8,39.7z
				 M112.6,62.7h7.7v5l-2.6,0.1v38.4h-5.1V62.7z M94.7,62.7h7.7v5l-2.6,0.1v38.4h-5.1V62.7z M76.8,62.7h7.7v5l-2.6,0.1v38.4h-5.1
				V62.7z M58.9,62.7h7.7v5L64,67.8v38.4h-5.1V62.7z M41,62.7h7.7v5l-2.6,0.1v38.4H41V62.7z M23,62.7h7.7v5l-2.6,0.1v38.4H23V62.7z
				 M15.4,62.7v5l-2.6,0.1v38.4H7.7V62.7H15.4z M59.7,42.8c2.2,1.6,5.1,2.4,8.5,2.4c2.6,0,4.8-0.6,6.5-1.7c2.8-1.8,4.3-4.8,4.5-9
				h-6.5c0,1.2-0.4,2.4-1.1,3.6c-0.7,1.1-2,1.7-3.7,1.7c-1.8,0-3-0.5-3.7-1.4c-0.7-0.9-1-2-1-3.1c0-1,0.3-1.9,0.9-2.7
				c0.3-0.5,0.8-0.9,1.3-1.3l1.6-1.3c1.6-1.3,2.6-2.4,3-3.3c0.4-1,4.1-10.1,4.2-12.6H61.4c0,1.2,3.1,9.4,2.9,10
				c-0.3,0.9-0.9,1.7-1.7,2.3l-1.6,1.2c-1.6,1.3-2.7,2.3-3.3,3.1c-1,1.3-1.5,3-1.5,4.9C56.3,38.8,57.4,41.2,59.7,42.8z"/>
		</g>
	</g>
	<g id="box" class="st0">
		<g class="st1">
			<path class="st2" d="M63.8,24.5l-15.5-20L0,29.7l14.7,17.4L7.9,65.3l47.4,24l8.5-24L22.9,45.7L63.8,24.5z M128,30.1L80.7,4.5
				l-16.1,20l41.3,21.2L64.9,65.3l8.1,23.8l49.1-24l-7.7-18.2L128,30.1z M13.6,71.3l-0.2,29l50,23.3V74.3l-7.1,18.7L13.6,71.3z
				 M65.2,74.3v49.3l49.9-23.3V71.4L71.8,93L65.2,74.3z"/>
		</g>
	</g>
	<g id="umberlla" class="st0">
		<g class="st1">
			<path class="st2" d="M104.3,22.3c3.1,0,5.6-1.8,5.6-8c0-6.1-5.6-14.3-5.6-14.3s-5.6,8.2-5.6,14.3
				C98.8,20.5,101.3,22.3,104.3,22.3z M68.2,16.8v-5.7h-8.4v5.7C28.7,18.3,4.2,36.1,4.2,57.9c0,0.3,3.5-5.5,14.5-5.5
				c11.1,0,15.4,6,15.4,6s3-6,14.5-6c4.9,0,8.7,1.4,11.3,2.9v59.4c0,0-0.7,3.9-5.6,3.9c-5.4,0-5.6-7.7-5.6-7.7h-8.4
				c0,0,2.1,14.1,10.2,16.5c4,1.1,10,1.6,14.9-4.8c2.5-3.3,2.8-6.8,2.8-6.8V54.9c2.3-1.3,5.6-2.4,10.3-2.4c11.3,0,15.3,5.9,15.3,5.9
				s4.1-5.9,14.7-5.9c11.1,0,15.4,5.6,15.4,5.5C123.8,36.1,99.3,18.3,68.2,16.8z M37.6,36.2c-4,6.8-2.8,16.7-2.8,16.7H32
				c0,0,0.3-12.4,5.6-19.5c7-9.3,19.5-13.9,19.5-13.9S43.1,26.7,37.6,36.2z M64,55.6c-0.8,0-1.4-8.1-1.4-18.1
				c0-10,0.6-18.1,1.4-18.1c0.8,0,1.4,8.1,1.4,18.1C65.4,47.5,64.8,55.6,64,55.6z M93.2,52.9c0,0,1.2-9.9-2.8-16.7
				C84.9,26.7,71,19.5,71,19.5s12.5,4.6,19.5,13.9c5.3,7.1,5.6,19.5,5.6,19.5H93.2z"/>
		</g>
	</g>
</g>
<g id="row2_1_">
	<g id="fragile" class="st0">
		<g class="st1">
			<path class="st2" d="M25.4,63c0,5.7,11.9,23.4,11.9,23.4s-5,1.2-5,1L16.5,62.1V31.5c0-3.4-2.7-6.1-5.9-6.1
				c-3.3,0-5.9,2.7-5.9,6.1v55.9c0,3.4,26.7,40.6,26.7,40.6H59V97.5L35.3,59.9C35.3,59.9,25.4,55.7,25.4,63z M65,0L41.2,17.3
				L65,35.6l22.8-19.3L65,0z M40.2,46.7L63,64V38.6L40.2,22.3V46.7z M117.5,25.4c-3.3,0-5.9,2.7-5.9,6.1v30.6L95.7,87.4
				c0,0.2-5-1-5-1s11.9-17.7,11.9-23.4c0-7.3-9.9-3-9.9-3L69,97.5V128h27.7c0,0,26.7-37.3,26.7-40.6V31.5
				C123.4,28.1,120.8,25.4,117.5,25.4z M89.8,19.3L67,38.6V64l22.8-16.3V19.3z"/>
		</g>
	</g>
	<g id="fragile_1_" class="st0">
		<g class="st1">
			<path class="st2" d="M67.3,45H56.7l10.6,25.4l-17.6-29h7l-3.5-10.9H42.7v20c0,13,10.2,23.6,22.9,23.6c12.6,0,22.9-10.6,22.9-23.6
				v-20H53.2L67.3,45z M60.3,95.8l-14.1,10.9h38.7L70.8,95.8V74h-5.3h-5.3V95.8z M64,0C28.7,0,0,28.7,0,64c0,35.3,28.7,64,64,64
				c35.3,0,64-28.7,64-64C128,28.7,99.3,0,64,0z M64,118.9C33.7,118.9,9.1,94.3,9.1,64C9.1,33.7,33.7,9.1,64,9.1
				c30.3,0,54.9,24.6,54.9,54.9C118.9,94.3,94.3,118.9,64,118.9z"/>
		</g>
	</g>
	<g id="help" class="st0">
		<g class="st1">
			<path class="st2" d="M128,82.1c0-13.1-6.9-18.9-12.8-21.4V48c0-24.7-26.5-44.8-51.2-44.8C39.3,3.2,12.8,23.3,12.8,48v12.7
				C6.9,63.2,0,69,0,82.1c0,23.1,21.3,23.5,21.3,23.5v-8.5h0.1c0-0.7-0.1-1.4-0.1-2.1V58.7V48C21.3,28,44,11.7,64,11.7
				c20,0,42.7,16.2,42.7,36.3v10.7v36.3c0,0.7-0.1,1.4-0.1,2.1h0.1v8.5c0,0,0.5,0,1.3-0.1l-2.4,0.5c0,0-6.9,8.2-9.6,9.2
				c-8.1,3-17.8,0-22.6-1.9c-0.9-4.4-4.8-7.7-9.4-7.7c-5.3,0-9.6,4.3-9.6,9.6s4.3,9.6,9.6,9.6c2.8,0,5.3-1.2,7-3
				c3.2,0.8,19.1,4,31.4-3.4c5.1-3,14.5-14.9,14.5-14.9l-3.4,0.8C119.7,102.1,128,96.5,128,82.1z"/>
		</g>
	</g>
	<g id="time" class="st0">
		<g class="st1">
			<path class="st2" d="M81.5,73.2H65.9V44.3c0-1.2-1-2.2-2.2-2.2s-2.2,1-2.2,2.2v31.2c0,1.2,1,2.2,2.2,2.2h17.7
				c1.2,0,2.2-1,2.2-2.2C83.7,74.3,82.7,73.2,81.5,73.2z M65.7,15.8V9h4.7c2.4,0,4.4-2,4.4-4.5S72.8,0,70.4,0H57.1
				c-2.4,0-4.4,2-4.4,4.5s2,4.5,4.4,4.5h4.2v6.8c-29.3,1.5-52.7,25.9-52.7,56c0,31,24.8,56.2,55.4,56.2c30.6,0,55.4-25.1,55.4-56.2
				C119.4,41.4,95.5,16.7,65.7,15.8z M108.3,76.8c-1,8.6-4.4,16.7-9.4,23.1l-5.6-5.7l-2.9,2.9l5.8,5.9c-7.8,8.3-18.7,13.6-30.8,14.1
				v-11.3h-4.1v11.3c-11.8-0.7-22.4-6-30-14.3l5.2-5.3l-2.9-2.9l-5,5.1c-4.9-6.4-8.2-14.4-9.2-22.8h9.6v-4.1h-9.8c0,0-0.1-0.6-0.1-1
				c0-9.8,3.1-18.8,8.2-26.2l6.3,6.5l2.9-2.9L30,42.2C37.7,33,48.8,27,61.4,26.3v9.4h4.1v-9.5c12.7,0.4,24.1,6.3,32,15.4l-7,7.1
				l2.9,2.9l6.7-6.8c5.4,7.5,8.6,16.8,8.6,26.8c0,0.4-0.1,0.6-0.1,1H98v4.1H108.3z M111,16.2l-10-7.7l-10,9.3l10,7.7L111,16.2z
				 M36.6,17.9L27.1,8l-9.5,8.1l9.5,9.9L36.6,17.9z"/>
		</g>
	</g>
	<g id="globe" class="st0">
		<g class="st1">
			<path class="st2" d="M56.2,91c2.8-1.5,8.6-5.3,8.6-5.3h-18l0.4,7.5C47.2,93.2,50,94.3,56.2,91z M43.5,65.7H23.5
				c0.1,6.3,0.6,11.8,1.4,16.7h18.5V65.7z M65.4,45.7H46.8v16.7h20C66.7,56.1,66.2,50.6,65.4,45.7z M43.5,42.3V19.1
				c-3.5,0.1-7,0.7-10.2,1.6c-2.5,4.2-5.7,11.2-7.8,21.7H43.5z M66.8,65.7H46.8v16.7h18.5C66.1,77.5,66.7,72,66.8,65.7z M69.6,84.2
				c0,0,4.7-1.1,11.2-6.7s8.7-5.9,9-11.8H70.1C70,72,69.6,84.2,69.6,84.2z M57.1,20.7c-3.3-0.9-6.7-1.5-10.3-1.6v23.3h18
				C62.8,31.9,59.6,24.9,57.1,20.7z M85.9,45.7H68.7c0.8,4.9,1.3,10.4,1.4,16.7h19.7C89.6,56.4,88.2,50.8,85.9,45.7z M84.3,42.3
				c-5.1-9.2-13.2-16.4-23-20.3c2.4,4.3,5.1,10.9,7,20.3H84.3z M43.5,45.7H24.9c-0.8,4.9-1.3,10.4-1.4,16.7h20V45.7z M29.2,95.4
				c3.3,0.9,10-0.1,13.5,0l0.8-9.8h-18C27.6,96.2,26.7,91.3,29.2,95.4z M5.8,82.3h15.8c-0.8-4.9-1.3-10.4-1.4-16.7H0
				c0.2,5.6,1.5,10.9,3.6,15.7c-0.9-2.4-1.3-3.9-1.3-3.9S3.6,79.5,5.8,82.3z M15.7,92.9c3.7,0.8,6.8,0.3,6.8,0.3s1.5,2-0.3-7.5H8.5
				C10.6,88.1,13.1,90.7,15.7,92.9z M21.6,45.7H3.9C1.6,50.8,0.2,56.4,0,62.3h20.2C20.3,56.1,20.8,50.6,21.6,45.7z M29.1,22
				C19.1,25.7,10.7,33,5.5,42.3h16.6C24,32.9,26.8,26.2,29.1,22z M89.8,48.3l9,13.5c0,0-11.6,18.5-33.7,29.2
				c-10.8,5.2-22.4,10.3-40.4,6.7c-3-0.6-6.1-2.5-9-4.8c-3.5-0.8-7.6-2.6-10.1-7.2h2.9c-1-1.2-1.9-2.3-2.7-3.3H4
				c-0.1-0.3-0.3-0.6-0.4-0.9c1.9,5.2,6,14.6,12.1,20.8c7.5,7.6,27.9,6.6,35.9,6.7c31.1,0.7,65.1-31.4,65.1-31.4L128,88.7V48.3H89.8
				z"/>
		</g>
	</g>
</g>
<g id="row1_1_">
	<g id="_x32_4_x5F_hours" class="st0">
		<g class="st1">
			<path class="st2" d="M37.2,84.8c-0.1-0.1-12.1-19.5-12.2-19.7c-2.5-5.2-4.5-10.6-0.3-12.9L7.4,24C2.9,27.3-9.8,44.8,14,84.5
				c25.1,41.9,48.9,40.1,53.7,37.3L50.8,94.4C46.8,96.6,43.4,92.9,37.2,84.8z M79.3,111.1c0,0-13.2-21.4-13.2-21.4
				c-1-1.7-3.3-2.2-5-1.2L53,93.1l16.9,27.5c0,0,8.1-4.6,8.1-4.6l0,0C79.8,115,80.3,112.8,79.3,111.1L79.3,111.1z M35,46.3L35,46.3
				c1.9-1.1,2.3-3.3,1.3-4.9l0,0c0,0-13.6-22-13.6-22c-1-1.7-3.3-2.2-5-1.2l-8.1,4.6L27,50.9C27,50.9,35,46.3,35,46.3z M73.5,27.1
				L72.9,4.9l-5.8,0.2l0.6,22.1L73.5,27.1z M111.8,21.7l-4.5-4.1L92.6,32.8l4.5,4.1L111.8,21.7z M105.7,59.3l22.3-0.6l-0.2-6.4
				L105.5,53L105.7,59.3z M95.8,86l15.1,14.7l4.1-4.4L99.8,81.5L95.8,86z M57,59c-3.3,2.4-5.4,4.6-6.3,6.7c-0.9,1.9-1.4,3.9-1.5,6.2
				H71v-5.5H57.1c0.4-0.7,0.9-1.2,1.5-1.7c0.6-0.5,1.6-1.3,3.2-2.4l2.5-1.8c2.1-1.5,3.6-2.8,4.5-4c1.4-1.8,2.1-3.9,2.1-6.2
				c0-3.1-1-5.5-3-7.4c-2-1.9-4.6-2.8-8-2.8c-4.2,0-7.2,1.6-8.8,4.7c-0.9,1.7-1.4,3.8-1.5,6.5h6c0.1-1.8,0.3-3.1,0.7-3.9
				c0.7-1.4,2-2.1,3.9-2.1c1.4,0,2.4,0.4,3.2,1.3c0.7,0.9,1.1,2,1.1,3.3c0,1.6-0.6,3.2-1.9,4.5C61.8,55.5,59.9,57,57,59z M96.1,60.3
				h-3.6V40.5h-7L73.9,59.7v5.4h12.5v6.8h6.1v-6.8h3.6V60.3z M86.4,60.3h-7.9l7.9-13.6V60.3z"/>
		</g>
	</g>
	<g id="Crates_1_" class="st0">
		<g id="_x32_" class="st1">
			<g>
				<path class="st2" d="M128,88.7v-5.8H0v5.8h14.5v14.5H0v5.8h14.5h14.5h29.1h14.5h29.1h14.5H128v-5.8h-11.6V88.7H128z M29.1,103.3
					V88.7h29.1v14.5H29.1z M101.8,103.3H72.7V88.7h29.1V103.3z"/>
			</g>
		</g>
		<g id="_x31_" class="st1">
			<g>
				<path class="st2" d="M0,18.9V80h128V18.9H0z M61.1,74.2H5.8V53.8h55.3V74.2z M61.1,50.9H5.8V24.7h55.3V50.9z M122.2,74.2H64
					V53.8h58.2V74.2z M122.2,50.9H64V24.7h58.2V50.9z M116.4,27.6H78.5V48h37.8V27.6z M84.4,30.5h17.5v2.9H84.4V30.5z M110.5,45.1
					H84.4v-2.9h26.2V45.1z M110.5,39.3H84.4v-2.9h26.2V39.3z"/>
			</g>
		</g>
	</g>
	<g id="wooden_x5F_box" class="st0">
		<g class="st1">
			<path class="st2" d="M128,10.6H0v106.7h29.4l0,0.1l0.1-0.1H128V10.6z M74.7,21.3H83l-8.3,6.8V21.3z M42.7,21.3h24.9v12.6
				L42.7,54.3V21.3z M10.7,21.3h24.9v38.8L10.7,80.4V21.3z M10.7,87.7l1,1.2l81-67.6h24.6v15.4l-1-1.2L31,106.6H10.7V87.7z
				 M42.3,106.6l11-9.2v9.2H42.3z M60.4,106.6V91.5l24.9-20.8v35.9H60.4z M92.4,106.6V64.8L117.3,44v62.6H92.4z"/>
		</g>
	</g>
	<g id="map_1_" class="st0">
		<path id="icon_30_" class="st3" d="M50.5,34.6c0-8.7,7.1-15.8,15.9-15.8c8.8,0,15.9,7.1,15.9,15.8c0,8.7-7.1,15.8-15.9,15.8
			C57.6,50.4,50.5,43.4,50.5,34.6z M39.4,36.6c0,6.6,8.1,20.5,8.1,20.5l18.9,31.6l17.8-31.6c0,0,9.1-14,9.1-20.5
			c0-14.8-12.1-26.8-27-26.8S39.4,21.8,39.4,36.6z"/>
		<g id="icon_14_" class="st1">
			<g>
				<path class="st2" d="M91.9,49.3v6.6h6.6v29.5H49.2V55.9h-3.3v32.8h3.3h72.2v9.8H45.9v13.1H32.8V82.1H6.6v-9.8h26.3V55.9h6.6
					v-6.6H0v68.9h128V49.3H91.9z M6.6,55.9h23L29.6,69H6.6V55.9z M29.5,111.6h-23V85.4h23.1L29.5,111.6z M121.4,111.6H49.2l0.5-9.8
					h71.7V111.6z M121.4,85.4h-19.7V55.9h19.7V85.4z"/>
			</g>
		</g>
	</g>
	<g id="delivery_x5F_truck">
		<g>
			<path class="st2" d="M14.4,50.5h19.8v-3.6H14.4V50.5z M0,59.5h34.3v-3.6H0V59.5z M54.6,73.3c-4.5,0-8.2,3.7-8.2,8.3
				c0,4.6,3.7,8.3,8.2,8.3c4.5,0,8.2-3.7,8.2-8.3C62.8,77,59.1,73.3,54.6,73.3z M54.6,85.7c-2.3,0-4.1-1.9-4.1-4.1
				c0-2.3,1.8-4.1,4.1-4.1c2.3,0,4.1,1.9,4.1,4.1C58.7,83.9,56.8,85.7,54.6,85.7z M107.4,73.3c-4.5,0-8.2,3.7-8.2,8.3
				c0,4.6,3.7,8.3,8.2,8.3s8.2-3.7,8.2-8.3C115.7,77,112,73.3,107.4,73.3z M107.4,85.7c-2.3,0-4.1-1.9-4.1-4.1
				c0-2.3,1.8-4.1,4.1-4.1s4.1,1.9,4.1,4.1C111.6,83.9,109.7,85.7,107.4,85.7z M119,45.1l-19.8,0v30.4c1.9-2.6,4.9-4.2,8.3-4.2
				c5.5,0,10,4.4,10.3,9.9l10.3,0V55.9C128,52.4,124.1,44.9,119,45.1z M122.6,64.9h-18V50.5c0,0,7.5,0,12.6,0c3.7,0,5.4,2.3,5.4,5.4
				C122.6,60,122.6,64.9,122.6,64.9z M36.1,81.1h8.2c0.2-5.5,4.7-9.9,10.3-9.9c5.5,0,10,4.4,10.3,9.9h32.4c0-0.5,0.1-0.9,0.1-1.4
				V36.1H36.1V81.1z M18,68.5h16.2v-3.6H18V68.5z"/>
		</g>
	</g>
</g>
</svg>
