<svg xmlns="http://www.w3.org/2000/svg" viewBox="0 0 48 48"><title>2-hand coin</title><g id="_2-hand_coin" data-name="2-hand coin"><g id="_Group_" data-name="&lt;Group&gt;"><path d="M28.954,40.618a3,3,0,0,1-.829-.117l-5.4-1.54a1,1,0,0,1,.548-1.922l5.4,1.54a.968.968,0,0,0,.512.006.94.94,0,0,0,.653-.509l.286-.573a.981.981,0,0,0,.045-.8,1.01,1.01,0,0,0-.574-.586l-6.427-2.568a3,3,0,0,0-2.3.03l-5.471,2.34a1,1,0,0,1-.786-1.838l5.47-2.34a5.014,5.014,0,0,1,3.841-.047l6.423,2.567A3.032,3.032,0,0,1,32.042,36a3,3,0,0,1-.129,2.4l-.278.557a2.906,2.906,0,0,1-1.955,1.566A2.753,2.753,0,0,1,28.954,40.618Z"/><path d="M28.405,47.689a9.084,9.084,0,0,1-1.9-.2l-11.71-2.51a1,1,0,0,1,.418-1.956l11.71,2.51a7.055,7.055,0,0,0,3.923-.28L41.482,41.3a1,1,0,0,0,.618-1.188l-.206-.778a.994.994,0,0,0-1.142-.752l-11.128,1.96a1,1,0,1,1-.347-1.97l11.13-1.96a2.977,2.977,0,0,1,3.422,2.218l.207.78a3.006,3.006,0,0,1-1.854,3.563L31.538,47.127A8.992,8.992,0,0,1,28.405,47.689Z"/><path d="M15,46H11a1,1,0,0,1,0-2h3V34H11a1,1,0,0,1,0-2h4a1,1,0,0,1,1,1V45A1,1,0,0,1,15,46Z"/><path d="M11,47H1a1,1,0,0,1-1-1V32a1,1,0,0,1,1-1H11a1,1,0,0,1,1,1V46A1,1,0,0,1,11,47ZM2,45h8V33H2Z"/><path d="M11,37H7a1,1,0,0,1,0-2h4a1,1,0,0,1,0,2Z"/><path d="M33,32a15,15,0,1,1,10.608-4.395A14.935,14.935,0,0,1,33,32ZM33,4a13,13,0,1,0,9.191,3.806A12.95,12.95,0,0,0,33,4Z"/><path d="M33,32a1,1,0,0,1-1-1V30a1,1,0,0,1,2,0v1A1,1,0,0,1,33,32Z"/><path d="M33,5a1,1,0,0,1-1-1V3a1,1,0,0,1,2,0V4A1,1,0,0,1,33,5Z"/><path d="M47,18H46a1,1,0,0,1,0-2h1a1,1,0,0,1,0,2Z"/><path d="M20,18H19a1,1,0,0,1,0-2h1a1,1,0,0,1,0,2Z"/><path d="M42.9,27.9a1,1,0,0,1-.707-.293l-.71-.71A1,1,0,1,1,42.9,25.483l.71.71A1,1,0,0,1,42.9,27.9Z"/><path d="M23.81,8.81a1,1,0,0,1-.707-.293l-.71-.71a1,1,0,0,1,1.414-1.414l.71.71A1,1,0,0,1,23.81,8.81Z"/><path d="M42.19,8.81A1,1,0,0,1,41.483,7.1l.71-.71a1,1,0,1,1,1.414,1.414l-.71.71A1,1,0,0,1,42.19,8.81Z"/><path d="M23.1,27.9a1,1,0,0,1-.707-1.707l.71-.71A1,1,0,1,1,24.517,26.9l-.71.71A1,1,0,0,1,23.1,27.9Z"/><path d="M33,28A11,11,0,1,1,44,17,11.013,11.013,0,0,1,33,28ZM33,8a9,9,0,1,0,9,9A9.011,9.011,0,0,0,33,8Z"/><path d="M33,22a3,3,0,0,1-3-3,1,1,0,0,1,2,0,1,1,0,1,0,1-1,3,3,0,1,1,3-3,1,1,0,0,1-2,0,1,1,0,1,0-1,1,3,3,0,0,1,0,6Z"/><path d="M33,14a1,1,0,0,1-1-1V12a1,1,0,0,1,2,0v1A1,1,0,0,1,33,14Z"/><path d="M33,23a1,1,0,0,1-1-1V21a1,1,0,0,1,2,0v1A1,1,0,0,1,33,23Z"/></g></g></svg>