<svg xmlns="http://www.w3.org/2000/svg" viewBox="0 0 64 64"><title>Artboard-2</title><g id="Plus_sign" data-name="Plus sign"><path d="M35,28V20H29v8a1,1,0,0,1-1,1H20v6h8a1,1,0,0,1,1,1v8h6V36a1,1,0,0,1,1-1h8V29H36A1,1,0,0,1,35,28Z" style="fill:#27272d"/><path d="M32,7A25,25,0,1,0,57,32,25.0281,25.0281,0,0,0,32,7ZM46,36a1,1,0,0,1-1,1H37v8a1,1,0,0,1-1,1H28a1,1,0,0,1-1-1V37H19a1,1,0,0,1-1-1V28a1,1,0,0,1,1-1h8V19a1,1,0,0,1,1-1h8a1,1,0,0,1,1,1v8h8a1,1,0,0,1,1,1Z" style="fill:#27272d"/><path d="M32,0A32,32,0,1,0,64,32,32.0361,32.0361,0,0,0,32,0Zm0,59A27,27,0,1,1,59,32,27.0308,27.0308,0,0,1,32,59Z" style="fill:#27272d"/></g></svg>