<svg xmlns="http://www.w3.org/2000/svg" viewBox="0 0 32 32"><title>Artboard-39</title><g id="Shield_Checklist" data-name="Shield Checklist"><path d="M30.3936,6.0811l-14-6a1.0011,1.0011,0,0,0-.7872,0l-14,6A.9992.9992,0,0,0,1.001,7.05l.32,6.415A20.4757,20.4757,0,0,0,15.7061,31.9561a1.0057,1.0057,0,0,0,.5878,0A20.4777,20.4777,0,0,0,30.6787,13.4648l.32-6.415A.9992.9992,0,0,0,30.3936,6.0811Zm-1.7129,7.2841A18.4714,18.4714,0,0,1,16,29.9512,18.4715,18.4715,0,0,1,3.3193,13.3652l-.2861-5.72L16,2.0879,28.9668,7.6455Z" style="fill:#29292d"/><path d="M10.707,15.293a1,1,0,0,0-1.414,1.414l4,4a.9995.9995,0,0,0,1.414,0l8-8a1,1,0,0,0-1.414-1.414L14,18.5859Z" style="fill:#29292d"/></g></svg>