<svg xmlns="http://www.w3.org/2000/svg" viewBox="0 0 32 32"><title>Artboard-9</title><g id="Medal"><path d="M19.4746,18.6948a.9995.9995,0,0,0,.9854-1.1689l-.5743-3.3516,2.4356-2.373a1,1,0,0,0-.5547-1.7061l-3.3652-.4888L16.8965,6.5576a1.0409,1.0409,0,0,0-1.793,0L13.5986,9.6064l-3.3652.4888a1,1,0,0,0-.5547,1.7061l2.4356,2.373L11.54,17.5259A1,1,0,0,0,12.99,18.58L16,16.998,19.01,18.58A.9984.9984,0,0,0,19.4746,18.6948Zm-3.01-3.7119a.9991.9991,0,0,0-.93,0l-1.6817.8843.32-1.8731a1.0008,1.0008,0,0,0-.2871-.8852l-1.36-1.3257,1.88-.2729a.999.999,0,0,0,.7529-.5474L16,9.26l.8408,1.7031a.999.999,0,0,0,.753.5474l1.88.2729-1.36,1.3257a1.0008,1.0008,0,0,0-.2871.8852l.32,1.8731Z" style="fill:#29292d"/><path d="M31.707,24.293l-5.2257-5.2258A3.3937,3.3937,0,0,0,27.82,13.87a1.4313,1.4313,0,0,1,0-1.7392l.002-.001a3.43,3.43,0,0,0-1.7471-5.374,1.4315,1.4315,0,0,1-1.0215-1.4107,3.429,3.429,0,0,0-4.5752-3.3183,1.4383,1.4383,0,0,1-1.6553-.543,3.4284,3.4284,0,0,0-5.65.0054,1.4316,1.4316,0,0,1-1.6573.5356A3.4291,3.4291,0,0,0,6.9463,5.35,1.431,1.431,0,0,1,5.9248,6.7563,3.4283,3.4283,0,0,0,4.18,12.13a1.4314,1.4314,0,0,1-.002,1.74,3.3957,3.3957,0,0,0,1.34,5.1972L.293,24.293a1,1,0,0,0,.5107,1.6875L5.15,26.85,6.02,31.1963a1,1,0,0,0,1.6875.5107l6.3444-6.3448a3.2941,3.2941,0,0,0,3.8968,0L24.293,31.707a1,1,0,0,0,1.6875-.5107L26.85,26.85l4.3467-.8691a1,1,0,0,0,.5107-1.6875ZM7.6143,28.9717l-.6338-3.168a1,1,0,0,0-.7842-.7842l-3.168-.6338,3.8949-3.8949a1.3707,1.3707,0,0,1,.0231.1645,3.429,3.429,0,0,0,4.5752,3.3183,1.4161,1.4161,0,0,1,1.0367.0537Zm7.205-5.5962A3.4352,3.4352,0,0,0,10.8506,22.09a1.4286,1.4286,0,0,1-1.9043-1.3881,3.4261,3.4261,0,0,0-1.0536-2.5549c-.0068-.0072-.0087-.0167-.0157-.0238-.0171-.017-.04-.0227-.0578-.0383a3.4082,3.4082,0,0,0-1.326-.7585,1.43,1.43,0,0,1-.7276-2.24,3.4321,3.4321,0,0,0,0-4.1733,1.4287,1.4287,0,0,1,.7276-2.24A3.4354,3.4354,0,0,0,8.9463,5.2939a1.4278,1.4278,0,0,1,1.9092-1.3813,3.4361,3.4361,0,0,0,3.9677-1.2944,1.4671,1.4671,0,0,1,2.3575.0063A3.4415,3.4415,0,0,0,21.1494,3.91a1.4286,1.4286,0,0,1,1.9043,1.3881,3.4349,3.4349,0,0,0,2.4531,3.3755,1.4286,1.4286,0,0,1,.7266,2.24,3.4336,3.4336,0,0,0,.001,4.1733,1.4287,1.4287,0,0,1-.7276,2.24,3.405,3.405,0,0,0-1.3244.757c-.0185.0159-.0418.0218-.0594.0393-.0072.0072-.0092.0171-.0162.0245a3.4311,3.4311,0,0,0-1.0531,2.5586,1.4278,1.4278,0,0,1-1.9092,1.3813,3.4406,3.4406,0,0,0-3.9677,1.2944A1.4671,1.4671,0,0,1,14.8193,23.3755ZM25.8037,25.02a1,1,0,0,0-.7842.7842l-.6338,3.168L19.44,24.0259a1.4207,1.4207,0,0,1,1.044-.05A3.4291,3.4291,0,0,0,25.0537,20.65a1.3742,1.3742,0,0,1,.0225-.16l3.8955,3.8954Z" style="fill:#29292d"/></g></svg>