<svg xmlns="http://www.w3.org/2000/svg" viewBox="0 0 32 32"><title>Artboard-36</title><g id="Truck_Delivery" data-name="Truck Delivery"><path d="M31.8945,13.5527l-3-6A1,1,0,0,0,28,7H20V5a1,1,0,0,0-1-1H1A1,1,0,0,0,0,5V24a1,1,0,0,0,1,1H3.142a3.9807,3.9807,0,0,0,7.716,0H21.142a3.9807,3.9807,0,0,0,7.716,0H31a1,1,0,0,0,1-1V14A1.1194,1.1194,0,0,0,31.8945,13.5527ZM29.3818,13H24V9h3.3818ZM2,6H18V23H10.858a3.9807,3.9807,0,0,0-7.716,0H2ZM7,26a2,2,0,1,1,2-2A2.0023,2.0023,0,0,1,7,26Zm18,0a2,2,0,1,1,2-2A2.0023,2.0023,0,0,1,25,26Zm3.858-3a3.9807,3.9807,0,0,0-7.716,0H20V9h2v5a1,1,0,0,0,1,1h7v8Z" style="fill:#29292d"/><path d="M24,16H23a1,1,0,0,0,0,2h1a1,1,0,0,0,0-2Z" style="fill:#29292d"/></g></svg>