<svg id="Layer_1" data-name="Layer 1" xmlns="http://www.w3.org/2000/svg" viewBox="0 0 500 500"><defs><style>.cls-1{stroke:#000;stroke-miterlimit:10;stroke-width:5px;}</style></defs><path class="cls-1" d="M294.73,146.28H149.51a8.07,8.07,0,0,0-8.07,8.07V235a8.07,8.07,0,0,0,8.07,8.07H294.73A8.07,8.07,0,0,0,302.8,235V227h8.07a8.07,8.07,0,0,0,8.06-8.07V170.48a8.07,8.07,0,0,0-8.06-8.07H302.8v-8.06A8.07,8.07,0,0,0,294.73,146.28ZM157.58,162.41h51.9L248.21,227H157.58ZM302.8,210.82h-8.07a8.07,8.07,0,0,0-8.07,8.07V227H267L228.3,162.41h58.36v8.07a8.07,8.07,0,0,0,8.07,8.07h8.07Z"/><circle class="cls-1" cx="127.73" cy="100.29" r="8.07"/><path class="cls-1" d="M392.64,224.72l-.12-.13a30.7,30.7,0,0,1-9-21.84c0-84.52-68.76-153.28-153.28-153.28a153.16,153.16,0,0,0-78.12,21.37,8.07,8.07,0,0,0,8.24,13.88A136.91,136.91,0,0,1,230.19,65.6c75.62,0,137.15,61.53,137.15,137.15A46.77,46.77,0,0,0,381,235.94l35.55,37.16a8.06,8.06,0,0,1-3.08,13.33l-24.44,7.88a8.06,8.06,0,0,0-4.92,10.92c6.42,14.61,8.68,19.8,8.82,20.08a8.07,8.07,0,0,1-3.87,10.95l-6.94,3.16a8.06,8.06,0,0,0-2.37,13.05l2.71,2.71a8.08,8.08,0,0,1,0,11.4l-4.73,4.73a8.08,8.08,0,0,0-2.36,5.7,24.24,24.24,0,0,1-24.21,24.21H318.93c-24.31,0-44,21.61-47.75,45.18H158.63c5.79-57-13.14-93-31.48-127.79C110.38,286.77,93,253.85,93,202.75a137,137,0,0,1,19.11-69.88,8.07,8.07,0,0,0-13.88-8.23A153.12,153.12,0,0,0,76.9,202.75c0,55.09,18.29,89.8,36,123.38,18.95,36,36.84,69.92,28.66,127.19a8.06,8.06,0,0,0,8,9.21H278.6a8.06,8.06,0,0,0,8.06-8.06c0-17.17,14.1-37.12,32.27-37.12H351.2a40.39,40.39,0,0,0,40.19-36.84l2.52-2.52a24.24,24.24,0,0,0,4.33-28.33,24.2,24.2,0,0,0,9.27-31.37l-5-11.37,16-5.16a24.2,24.2,0,0,0,9.53-40Z"/></svg>