<svg id="Layer_1" data-name="Layer 1" xmlns="http://www.w3.org/2000/svg" viewBox="0 0 500 500"><path d="M354.83,181.69l-12.75-10.34-5.94,15.32c-.11.29-11.51,29.12-29,23.87a12.38,12.38,0,0,1-8.18-7.06c-4.35-9.32-2.5-26.18,4.71-43,10-23.2,5.61-47.52-12.63-70.32a127.82,127.82,0,0,0-28.88-26.14L243.46,52.41l.41,22c0,.39.41,39.49-28.53,53.82-17.74,8.78-30.43,23.31-35.75,40.9a62.79,62.79,0,0,0,5.73,49.38c3.53,6.1,4.6,11.28,3.18,15.39-2,5.87-8.57,8.89-10.53,9.68-20.7,8.31-34.24-19.44-34.79-20.58l-9.44-20.15-11.57,19a156.17,156.17,0,0,0-22.7,81.22c0,85.67,69.2,155.48,154.65,156.49.62,0,1.25,0,1.88,0h0c86.31,0,156.53-70.21,156.53-156.51a156,156,0,0,0-57.7-121.39ZM207,386.77v-.15a90.16,90.16,0,0,1,5.4-30.39l29.42,8.6.29-15.62c.46-23.91,13.94-38.58,24.72-46.53a107.88,107.88,0,0,0,13,32.48c6.78,11.07,13.21,20.46,19.14,28.94,3.8,5.46,6,13.71,5.92,22.62v.06a48.94,48.94,0,0,1-49,48.94h0a49,49,0,0,1-49-49Zm114.66,31.5a72.58,72.58,0,0,0,7.14-31.46c.06-13.92-3.57-26.83-10.23-36.37s-12.26-17.81-18.35-27.75c-6.8-11.1-10.88-24.19-12.49-40l-1.57-15.46-14.53,5.5a89.83,89.83,0,0,0-26.29,16.82c-13.38,12.13-22,27.14-25.44,44l-21.34-6.23-4.21,9.61c-7.63,17.39-11.4,34.18-11.22,49.92a72.33,72.33,0,0,0,7.19,31.47,132.66,132.66,0,0,1-56.49-167.08c1.06,1.17,2.18,2.34,3.38,3.49,14.62,14.08,32.24,18,49.61,11,11.73-4.71,20.56-13.47,24.21-24,2.59-7.52,3.82-19.72-5.08-35.13A38.27,38.27,0,0,1,202.44,176c3.39-11.21,11.73-20.59,23.49-26.41,24.75-12.26,34.87-35.27,39-52.72a92.55,92.55,0,0,1,7.8,8.65c12.26,15.55,15.29,30.87,9,45.53-10.08,23.46-11.73,46.81-4.42,62.49a36.18,36.18,0,0,0,23,19.83c16.38,4.91,32.41-.81,45.12-16.11a79,79,0,0,0,5.28-7.18A132.61,132.61,0,0,1,321.7,418.27Z"/></svg>