<svg id="Layer_1" data-name="Layer 1" xmlns="http://www.w3.org/2000/svg" viewBox="0 0 500 500"><path d="M387.06,263.09c-14.66,10.82-28.14,20.82-41.66,30.77q-51.11,37.61-102.24,75.2c-11.79,8.69-23.49,17.52-35.21,26.31-5.7,4.27-10.62,4.8-14.52,1.49a9.78,9.78,0,0,1-3.37-8c0-11.16.05-22.33-.08-33.5a10.29,10.29,0,0,1,4.38-9c15.31-11.5,30.62-23,45.82-34.64,5.29-4,10.37-8.36,16.06-11.87,2.56-1.58,3.63-3.91,3.94-7.05,2.06-21,4.35-42,6.52-63.06.16-1.55,1.17-3.59-.59-4.56-1.39-.78-2.74.78-4,1.52q-32.37,19.35-64.7,38.8c-3.67,2.22-7.29,3.46-11.25,1.2s-5.09-5.78-5-10.15c.15-10.17.28-20.34,0-30.5-.18-5.92,2.24-9.81,7.21-12.59q25.5-14.29,51-28.67,18.93-10.69,37.78-21.5c1.12-.64,2.74-1.14,2.41-2.79s-2.14-1.93-3.44-2.6c-18.92-9.7-28.77-30.6-23.87-50.67,4.17-17,20.91-31.77,37.22-33.48,22.32-2.35,40.37,10.57,46.71,25.56,4.34,10.24,4.54,10.15,4.08,27.18,1.27,1,2.17-.15,3.07-.65q35-19.81,70-39.67c11.16-6.31,22.3-12.69,33.61-18.72,9-4.82,15.69-.82,15.76,9.24.09,10.66-.06,21.33,0,32,0,4.64-1.9,7.77-5.95,10.12q-39.11,22.69-78.09,45.61c-5.75,3.36-11.48,6.77-17.36,9.89a7.38,7.38,0,0,0-4.26,6.23c-1.5,14.06-3.06,28.12-4.53,42.19-.13,1.23-.7,2.94.76,3.63s2.4-.79,3.47-1.49c9.78-6.33,18.47-14.24,28.72-19.93,18.51-10.29,44.26.71,50.16,21.12,2.72,9.42.91,18.51-.35,27.7-2.16,15.66-4.57,31.29-6.89,46.94-1.51,10.18-6.08,12.94-16.06,9.74-6.82-2.18-13.67-4.29-20.47-6.55-7.86-2.61-9.93-6-8.74-14.31S385.56,272.87,387.06,263.09ZM443.93,98.43c0-7.25,0-7.28-4-5q-58.33,32.83-116.66,65.7c-39,22.05-77.86,44.3-116.91,66.24-4.57,2.56-6.43,5.51-6.06,10.66.29,4.14,1.25,4.43,4.67,2.39,22-13.17,44.1-26.15,66.13-39.27,4-2.36,7.94-3.67,12.23-1.27s4.55,6.68,4.21,11c-1,12.77-2,25.54-3.15,38.3-1.63,17.9-3.42,35.78-5.11,53.67a14,14,0,0,1-6,10.45c-19.9,14.84-39.62,29.9-59.62,44.59-3.87,2.83-5.63,5.84-5,10.41.15,1.1-.56,2.57.77,3.17s2.07-.72,3-1.38Q255.2,336.42,298,304.77q39.78-29.38,79.63-58.69c5.9-4.34,11.71-8.84,17.89-12.77,7.16-4.56,14.91-.09,14.9,8.33a30.29,30.29,0,0,1-.7,6.43c-2.57,11.55-4,23.3-5.94,34.95-.52,3.12.52,4.87,3.57,5.31s3.42-1.88,3.72-4.11q1.51-11.13,3-22.26c1.05-7.59,2.47-15.14,3.08-22.76.52-6.55-2-12.25-7.87-15.69-6.15-3.62-12.44-3.19-18.34.93-3.41,2.38-6.76,4.86-10.1,7.33-11.79,8.7-23.43,17.62-35.39,26.07-6.77,4.78-15.17.22-15.29-8.08a102.36,102.36,0,0,1,1-12.93c2.51-22,5.13-43.93,7.62-65.9.49-4.39,2.63-7.21,6.47-9.35,9.17-5.1,18.19-10.47,27.22-15.8,22.07-13,44.06-26.23,66.25-39.08C442.58,104.49,444.83,102.26,443.93,98.43ZM295.65,93.05c-13.42-.22-25.09,11.46-25.2,25.23-.11,13.25,11,24.93,24.06,25.29,14.56.41,26.1-10.73,26.43-25.5C321.24,104.57,309.83,93.28,295.65,93.05Z"/><path d="M82.81,399.7a3.57,3.57,0,0,1-2.65-1.51c-10-10.35-9.7-13.18,2.25-21.12q53.67-35.67,107.3-71.4c3.89-2.6,6-2.55,8.76,1.48,7.28,10.51,7.67,10.67-2.62,17.66-21.35,14.51-42.95,28.65-64.41,43-14.12,9.44-28.18,19-42.28,28.43C87.11,397.6,85.23,399.33,82.81,399.7Z"/><path d="M371,325.37c.08,2.56-1.2,3.43-2.38,4.34l-63,48.36c-3.57,2.74-7.1,5.52-10.63,8.3-2.4,1.9-4.5,1.8-6.39-.75a80.15,80.15,0,0,0-5.82-7.49c-2.84-3-2.64-5.08.77-7.64,15.2-11.37,30.25-22.94,45.31-34.48,9-6.88,18-13.76,26.82-20.84,3.52-2.82,6.08-2.55,8.6,1.14C366.51,319.58,369,322.7,371,325.37Z"/><path d="M65.25,336.25a3,3,0,0,1-2.41-1.57c-2.33-3.44-4.57-6.95-7-10.35-1.85-2.64,0-4,1.75-5.27q8.55-6,17.21-11.92c18.14-12.36,36.33-24.65,54.41-37.07,3-2.06,4.93-1.95,6.83,1.31a91.14,91.14,0,0,0,5.68,8.18c1.9,2.58,1.38,4.41-1.24,6.19-10.18,6.9-20.24,14-30.42,20.88C96.34,316,82.53,325.2,68.73,334.47,67.64,335.19,66.71,336.24,65.25,336.25Z"/><path d="M145.59,434.57c-.64-.27-1.44-.35-1.8-.79-3.27-4-6.59-7.91-9.59-12.08-1.08-1.49.46-2.71,1.71-3.64,9.87-7.33,19.79-14.6,29.56-22.07,3.13-2.39,5.18-2.07,7.3,1.19,1.81,2.78,4,5.3,6,7.93,1.58,2.05,1.64,3.82-.63,5.52-10,7.47-19.93,15-29.92,22.48A19.87,19.87,0,0,1,145.59,434.57Z"/><path d="M274.75,400a3.27,3.27,0,0,1-1.55,3c-4.34,3.35-8.67,6.72-13,10-1.82,1.38-3.47,1.58-5.14-.5-2.91-3.62-7.34-6.8-8.07-11.17-.9-5.34,5.45-6.23,8.66-9,8.19-7,8.32-6.92,14.95,1.54C272.18,395.91,274.15,397.79,274.75,400Z"/><path d="M53.73,396.61c2.84-.12,11.75,12.93,10.7,15.23a4.93,4.93,0,0,1-1.71,1.75c-4.1,2.81-8.28,5.52-12.35,8.39-2.44,1.71-4.14,1.3-5.74-1.17-1.9-2.92-4.05-5.67-6.06-8.51-1.89-2.67-1.58-4.81,1.31-6.66,3.62-2.33,7.09-4.92,10.66-7.33A33.34,33.34,0,0,1,53.73,396.61Z"/></svg>