<?xml version="1.0" encoding="utf-8"?>
<!-- Generator: Adobe Illustrator 16.0.0, SVG Export Plug-In . SVG Version: 6.00 Build 0)  -->
<!DOCTYPE svg PUBLIC "-//W3C//DTD SVG 1.0//EN" "http://www.w3.org/TR/2001/REC-SVG-20010904/DTD/svg10.dtd">
<svg version="1.0" id="Layer_1" xmlns="http://www.w3.org/2000/svg" xmlns:xlink="http://www.w3.org/1999/xlink" x="0px" y="0px"
	 width="100px" height="100px" viewBox="0 0 100 100" enable-background="new 0 0 100 100" xml:space="preserve">
<path d="M66.667,16.667L50,10l-16.667,6.667L16.667,10v30.091c0.006,7.162,1.416,14.18,4.107,20.678
	C26.067,73.542,36.224,84.294,50,90c13.776-5.706,23.933-16.458,29.226-29.231c2.691-6.498,4.102-13.516,4.107-20.678V10
	L66.667,16.667z M76.667,40.091c-0.007,6.273-1.218,12.373-3.601,18.125C68.581,69.04,60.449,77.644,50,82.695
	C39.548,77.64,31.416,69.036,26.934,58.216c-2.383-5.755-3.594-11.855-3.601-18.131V19.847l10,4.001L50,17.181l16.667,6.667
	l10-4.001V40.091z"/>
<path d="M70,40.003L50,60c0,0.003-13.333-13.33-13.333-13.33l4.717-4.714c0,0,4.781,4.785,8.616,8.617l15.286-15.287L70,40.003z"/>
</svg>
