<?xml version="1.0" encoding="UTF-8"?>
<!DOCTYPE svg PUBLIC "-//W3C//DTD SVG 1.1//EN" "http://www.w3.org/Graphics/SVG/1.1/DTD/svg11.dtd">
<!-- Creator: CorelDRAW -->
<svg xmlns="http://www.w3.org/2000/svg" xml:space="preserve" width="2048px" height="2048px" style="shape-rendering:geometricPrecision; text-rendering:geometricPrecision; image-rendering:optimizeQuality; fill-rule:evenodd; clip-rule:evenodd"
viewBox="0 0 2048 2048"
 xmlns:xlink="http://www.w3.org/1999/xlink">
 <defs>
  <style type="text/css">
   <![CDATA[
    .fil1 {fill:none}
    .fil0 {fill:#8C8C8C;fill-rule:nonzero}
   ]]>
  </style>
 </defs>
 <g id="Layer_x0020_1">
  <metadata id="CorelCorpID_0Corel-Layer"/>
  <path class="fil0" d="M798.922 1589.83c-141.123,114.979 -304.56,194.68 -450.113,197.746 -18.6307,0.393307 -69.3497,1.1126 -83.315,-11.8984 -12.0508,-11.2276 -12.7193,-30.1028 -1.49055,-42.1536l1348.72 -1457.35c5.89252,-6.9567 14.8854,-11.1366 24.6815,-10.5165 1.81772,2.02677 61.4847,5.83937 94.1883,37.8166 22.024,21.5339 35.2406,50.6374 41.589,86.4296 2.21339,9.38741 -0.152362,19.6725 -7.22599,27.2528l-0.0259843 -0.0236221c-144.608,154.997 -386.857,425.104 -532.578,579.058 -8.06103,10.3488 -22.3217,14.4874 -35.0197,9.2067l0.0366142 -0.0897638c-31.9087,-13.2555 -44.0847,-9.1193 -47.8902,0.0307087 -5.99882,14.4295 -4.77048,38.3315 -3.98859,53.5359 0.587008,11.4036 1.05236,20.4815 -1.96417,28.4906 -39.4418,175.952 -177.534,365.534 -345.6,502.468z"/>
  <path class="fil0" d="M264.823 558.623c-2.06339,-2.33386 -3.69449,-4.90158 -4.89922,-7.60276l39.2882 -39.287c3.77362,1.67717 7.25552,4.17048 10.1705,7.46457l211.564 239.646c3.17362,3.59764 7.17048,7.79882 11.9445,12.5752 65.6186,67.4209 155.799,35.3941 215.486,-27.3957l0.322441 -0.336614 0.336614 -0.322441c62.7898,-59.6871 94.8166,-149.868 27.3957,-215.486 -4.77638,-4.77402 -8.97757,-8.77087 -12.5752,-11.9445l-239.646 -211.564c-3.2941,-2.91496 -5.78741,-6.39686 -7.46575,-10.1705l39.2882 -39.287c2.70118,1.20354 5.2689,2.83465 7.60276,4.89804l239.648 211.564c6.27284,5.53819 11.3835,10.2886 15.3732,14.2784 51.4335,51.4347 70.2378,105.247 66.8339,157.347 -3.33662,51.0166 19.4965,193.329 51.8315,262.651 -4.57914,5.18859 -8.78741,9.75828 -12.6307,13.7291l-0.148819 0.152362 -0.151181 0.147638c-3.97087,3.84331 -8.54056,8.05158 -13.7291,12.6319 -69.3225,-32.3362 -211.635,-55.1693 -262.651,-51.8327 -52.1008,3.40394 -105.912,-15.4004 -157.347,-66.8339 -3.98977,-3.98977 -8.74016,-9.1004 -14.2784,-15.3732l-211.564 -239.648z"/>
  <path class="fil0" d="M878.314 832.785c-11.6599,-11.6599 -30.5658,-10.6878 -42.2256,0.972048 -11.6599,11.6599 -11.6599,30.567 0,42.2256l96.8268 96.8268 41.0646 -44.0138 -95.6658 -96.0107zm263.039 351.288c68.7898,84.8788 7.94056,103.662 131.764,228.279l348.688 351.604 0.0011811 0.0011811c19.4185,19.4185 44.9859,29.1307 70.5308,29.1307 25.5461,0 51.1134,-9.71221 70.5308,-29.1295l0.0011811 -0.0011811 0.00236221 -0.00236221c19.4185,-19.4185 29.1295,-44.9859 29.1295,-70.5319 0,-25.5461 -8.73898,-51.1134 -28.1575,-70.5319l-353.061 -353.062c-140.199,-140.199 -137.224,-49.8426 -245.348,-149.599 -7.12205,21.3709 -15.1725,42.6792 -24.0803,63.8434z"/>
  <path class="fil0" d="M342.459 468.486l352.712 352.712c11.6599,11.6599 30.5658,11.6599 42.2256,0 11.6599,-11.6599 11.6599,-30.5658 0,-42.2256l-352.712 -352.712 -42.2256 42.2256z"/>
  <path class="fil0" d="M435.881 375.064l352.711 352.712c11.6599,11.6587 30.567,11.6587 42.2268,0 11.6587,-11.6599 11.6587,-30.567 0,-42.2268l-352.712 -352.711 -42.2256 42.2256z"/>
 </g>
 <rect class="fil1" width="2048" height="2048"/>
</svg>
