<?xml version="1.0" encoding="UTF-8"?>
<!DOCTYPE svg PUBLIC "-//W3C//DTD SVG 1.1//EN" "http://www.w3.org/Graphics/SVG/1.1/DTD/svg11.dtd">
<!-- Creator: CorelDRAW -->
<svg xmlns="http://www.w3.org/2000/svg" xml:space="preserve" width="2048px" height="2048px" style="shape-rendering:geometricPrecision; text-rendering:geometricPrecision; image-rendering:optimizeQuality; fill-rule:evenodd; clip-rule:evenodd"
viewBox="0 0 2048 2048"
 xmlns:xlink="http://www.w3.org/1999/xlink">
 <defs>
  <style type="text/css">
   <![CDATA[
    .fil1 {fill:none}
    .fil0 {fill:#8C8C8C;fill-rule:nonzero}
   ]]>
  </style>
 </defs>
 <g id="Layer_x0020_1">
  <metadata id="CorelCorpID_0Corel-Layer"/>
  <g id="_308052192">
   <g>
    <path id="_308052792" class="fil0" d="M928.748 257.315c67.2898,0 127.794,35.0162 171.213,91.6276 42.0508,54.8245 68.0587,130.135 68.0587,212.932l0 0.00236221c-0.0011811,82.7965 -26.0091,158.106 -68.0587,212.93 -43.4185,56.6103 -103.921,91.6264 -171.212,91.6264l-0.0011811 0c-67.291,0 -127.794,-35.0162 -171.214,-91.6276 -42.0496,-54.8245 -68.0575,-130.134 -68.0575,-212.932 0,-82.7965 26.0079,-158.107 68.0575,-212.932 43.4197,-56.6115 103.923,-91.6276 171.214,-91.6276zm0 77.3304c-3.36733,0 -6.09804,2.73071 -6.09804,6.09804 0,3.36614 2.73071,6.09686 6.09804,6.09686 22.9288,0 44.7378,5.85945 64.5756,16.4764 20.7673,11.1154 39.3945,27.417 54.9201,47.6599 15.124,19.7185 27.3213,43.2319 35.6611,69.3237 8.03741,25.1469 12.4736,52.702 12.4736,81.5741 0,3.36614 2.73189,6.09686 6.09804,6.09686 3.36614,0 6.09686,-2.73071 6.09686,-6.09686 0,-30.1004 -4.65118,-58.9099 -13.0795,-85.2792 -8.76261,-27.4158 -21.6295,-52.1882 -37.6146,-73.03 -16.6004,-21.6402 -36.5398,-39.0827 -58.7953,-50.9941 -21.5835,-11.5512 -45.3355,-17.9256 -70.3359,-17.9256z"/>
    <path id="_308052552" class="fil0" d="M956.017 855.294c0,-13.4693 -11.4815,-23.8288 -24.9508,-23.8288 -13.4705,0 -24.3898,10.9205 -24.3898,24.3898l0 208.943c0,130.96 -56.8701,82.9194 -57.3804,242.548l-1.68425 404.491 0 0.0011811c0,22.4327 9.15827,42.8091 23.9126,57.5634 14.7567,14.7567 35.1331,23.915 57.5646,23.915l0.0011811 0 0.00236221 0c22.4327,0 42.8103,-9.15827 57.5658,-23.915 14.7555,-14.7543 24.4748,-34.5697 24.4748,-57.0024l0.0011811 -407.861c0,-170.105 -55.6784,-102.071 -55.6784,-247.601l0.561024 -201.644z"/>
   </g>
   <g>
    <path id="_308052480" class="fil0" d="M1327.77 264.991c0.165354,-2.7 0.741733,-5.27835 1.66063,-7.67599l48.2469 0c1.28622,3.34725 1.89331,7.01575 1.66063,10.8284l-17.2429 277.053c-0.259843,4.15748 -0.386221,9.19135 -0.386221,15.0555 -1.10787,81.6886 73.93,117.397 149.133,115.492l0.405118 -0.00944883 0.405118 0.00944883c75.2032,1.90512 150.241,-33.8032 149.133,-115.492 0,-5.86418 -0.126378,-10.898 -0.386221,-15.0555l-17.2441 -277.053c-0.232677,-3.8126 0.37441,-7.48111 1.66181,-10.8284l48.2469 0c0.918898,2.39764 1.49528,4.97599 1.65945,7.67599l17.2453 277.054c0.451181,7.25197 0.672048,13.3063 0.672048,18.2067 -0.0011811,63.163 -21.4961,107.751 -55.5768,137.65 -33.3733,29.2772 -106.736,130.68 -129.447,193.1 -5.99764,0.373229 -11.387,0.595276 -16.1858,0.673229l-0.184252 0.00236221 -0.184252 -0.00236221c-4.79882,-0.0779528 -10.1882,-0.3 -16.1858,-0.673229 -22.7103,-62.4201 -96.0733,-163.823 -129.448,-193.1 -34.0807,-29.8996 -55.5756,-74.4875 -55.5756,-137.65 0,-4.9004 0.220866,-10.9547 0.672048,-18.2067l17.2441 -277.054z"/>
    <path id="_308052840" class="fil0" d="M1540.6 796.153c0,-14.3185 -12.2067,-25.3311 -26.5252,-25.3311 -14.3185,0 -25.9276,11.6091 -25.9276,25.9276l0.0011811 222.116c0,139.217 -60.456,88.1469 -60.9981,257.841l-1.79055 429.992 0 0.00236221c0,23.8465 9.73583,45.5079 25.4209,61.193 15.6862,15.6862 37.3477,25.4221 61.193,25.4221l0.0011811 0 0.00354331 0c23.8465,0 45.5079,-9.73583 61.1941,-25.4221 15.6862,-15.6851 26.0185,-36.75 26.0185,-60.5977l0.0011811 -433.575c0,-180.829 -59.1898,-108.506 -59.1898,-263.211l0.597638 -214.357z"/>
    <path id="_308052456" class="fil0" d="M1430.79 257.315l0 433.144c0,14.3185 11.6091,25.9276 25.9276,25.9276 14.3185,0 25.9276,-11.6091 25.9276,-25.9276l0 -433.144 -51.8552 0z"/>
    <path id="_308051472" class="fil0" d="M1545.51 257.315l0 433.144c0,14.3185 11.6091,25.9276 25.9276,25.9276 14.3185,0 25.9276,-11.6091 25.9276,-25.9276l0 -433.144 -51.8552 0z"/>
   </g>
   <path id="_308052024" class="fil0" d="M569.462 1391.55c-19.9193,143.705 -72.0107,278.938 -155.273,359.748 -10.6571,10.3441 -39.8599,38.2996 -55.0725,38.289 -13.1268,-0.00826772 -23.7638,-10.6583 -23.7555,-23.7862l1.9937 -1462.49c-0.337796,-7.25788 2.63977,-14.5784 8.69292,-19.5354 2.16024,0.196063 39.0449,-29.9729 75.4867,-29.0693 24.541,0.607087 48.0532,10.4126 71.1886,27.8504 6.38859,4.27559 10.5921,11.5606 10.5803,19.8248l-0.0283465 0c-0.226772,168.945 -1.18228,338.005 -2.62441,506.946 0.915355,10.415 -5.15906,20.5725 -15.4347,24.3851l-0.0283465 -0.0732284c-25.813,9.58938 -30.6733,18.613 -27.926,26.0185 4.33347,11.6752 18.0272,24.9543 26.7378,33.4016 6.53386,6.33544 11.7343,11.3787 14.3209,17.6906 72.5127,124.076 94.8627,309.664 71.1414,480.805z"/>
  </g>
 </g>
 <rect class="fil1" width="2048" height="2048"/>
</svg>
