<?xml version="1.0" encoding="UTF-8"?>
<!DOCTYPE svg PUBLIC "-//W3C//DTD SVG 1.1//EN" "http://www.w3.org/Graphics/SVG/1.1/DTD/svg11.dtd">
<!-- Creator: CorelDRAW -->
<svg xmlns="http://www.w3.org/2000/svg" xml:space="preserve" width="2048px" height="2048px" style="shape-rendering:geometricPrecision; text-rendering:geometricPrecision; image-rendering:optimizeQuality; fill-rule:evenodd; clip-rule:evenodd"
viewBox="0 0 2048 2048"
 xmlns:xlink="http://www.w3.org/1999/xlink">
 <defs>
  <style type="text/css">
   <![CDATA[
    .fil2 {fill:none}
    .fil1 {fill:#8C8C8C}
    .fil0 {fill:#8C8C8C;fill-rule:nonzero}
   ]]>
  </style>
 </defs>
 <g id="Layer_x0020_1">
  <metadata id="CorelCorpID_0Corel-Layer"/>
  <g id="_308039720">
   <g>
    <path id="_308040248" class="fil0" d="M1713.73 334.588c-62.4225,-62.4225 -151.031,-86.0658 -243.825,-73.8284 -89.8654,11.85 -183.854,57.5859 -260.66,134.392l-0.00236221 0.00236221c-76.806,76.8071 -122.541,170.795 -134.391,260.659 -12.2374,92.7934 11.4047,181.4 73.8272,243.822l0.0011811 0.0011811c62.4225,62.4225 151.031,86.0658 243.825,73.8284 89.8654,-11.85 183.853,-57.5859 260.66,-134.392 76.806,-76.8071 122.542,-170.795 134.392,-260.66 12.2374,-92.7946 -11.4047,-181.402 -73.8272,-243.825zm-71.7355 71.7355c3.12284,3.12284 3.12284,8.18977 0,11.3126 -3.12284,3.12284 -8.18977,3.12284 -11.3126,0 -21.2705,-21.2705 -46.937,-36.0662 -75.189,-44.6197 -29.5748,-8.95394 -61.9772,-11.1106 -95.1579,-6.73583 -32.3209,4.2626 -65.4485,14.7602 -97.3891,31.2272 -30.7831,15.8717 -60.4607,37.3181 -87.2434,64.1008 -3.12284,3.12284 -8.18977,3.12284 -11.3126,0 -3.12284,-3.12284 -3.12284,-8.18977 0,-11.3126 27.9225,-27.9225 58.963,-50.3327 91.2426,-66.9756 33.561,-17.3032 68.4768,-28.3477 102.64,-32.8524 35.4733,-4.67599 70.1504,-2.35984 101.845,7.23662 30.737,9.30591 58.6843,25.4268 81.8764,48.6189z"/>
    <path id="_308040296" class="fil0" d="M1133.72 864.005c12.4949,-12.4949 32.7555,-11.4532 45.2504,1.04173 12.4949,12.4949 12.4949,32.7555 0,45.2504l-193.826 193.825c-121.485,121.485 -24.1642,129.676 -171.771,278.229l-373.663 376.788 -0.0011811 0.0011811c-20.8099,20.8099 -48.2079,31.2166 -75.5823,31.2166 -27.3768,0 -54.7748,-10.4067 -75.5835,-31.2154l-0.0011811 -0.0011811 -0.00236221 -0.00236221c-20.8099,-20.8099 -31.2166,-48.2079 -31.2166,-75.5847 0,-27.3756 9.36497,-54.7737 30.1748,-75.5835l378.351 -378.352c157.798,-157.798 146.336,-43.0359 281.338,-178.037l186.534 -187.576z"/>
   </g>
   <g>
    <path id="_308040008" class="fil0" d="M263.81 584.664c-2.21221,-2.5004 -3.95906,-5.25237 -5.25,-8.14725l42.1016 -42.1016c4.0441,1.79764 7.7752,4.46929 10.8992,7.99961l226.717 256.812c3.40158,3.85512 7.68426,8.35749 12.8008,13.4752 70.3182,72.2504 166.958,37.93 230.921,-29.3575l0.344882 -0.361418 0.361418 -0.344882c67.2875,-63.9626 101.608,-160.603 29.3575,-230.921 -5.11772,-5.11654 -9.62009,-9.39922 -13.4752,-12.8008l-256.812 -226.717c-3.53032,-3.12402 -6.20197,-6.85512 -7.99961,-10.8992l42.1016 -42.1016c2.89488,1.29095 5.64685,3.0378 8.14725,5.25l256.814 226.717c6.72166,5.93504 12.1984,11.0256 16.474,15.3012 55.1174,55.1185 75.2693,112.785 71.6209,168.617 -3.5752,54.6709 20.8925,207.177 55.5449,281.465 -4.90748,5.55945 -9.41694,10.4563 -13.5366,14.7118l-0.158268 0.162992 -0.162992 0.158268c-4.25552,4.11969 -9.15237,8.62914 -14.7118,13.5366 -74.2879,-34.6524 -226.794,-59.1201 -281.465,-55.5449 -55.8319,3.64843 -113.498,-16.5036 -168.617,-71.6209 -4.27559,-4.27559 -9.36615,-9.75237 -15.3012,-16.474l-226.717 -256.814z"/>
    <path id="_308039648" class="fil0" d="M913.041 862.451c-12.4949,-12.4949 -32.7555,-11.4532 -45.2504,1.04173 -12.4949,12.4949 -12.4949,32.7555 0,45.2504l193.826 193.825c121.485,121.485 24.1642,129.676 171.771,278.229l373.663 376.788 0.0011811 0.0011811c20.8099,20.8099 48.2079,31.2166 75.5823,31.2166 27.3768,0 54.7748,-10.4067 75.5835,-31.2154l0.0011811 -0.0011811 0.00236221 -0.00236221c20.8099,-20.8099 31.2166,-48.2079 31.2166,-75.5847 0,-27.3756 -9.36497,-54.7737 -30.1748,-75.5835l-378.351 -378.352c-157.798,-157.798 -146.336,-43.0359 -281.338,-178.037l-186.534 -187.576z"/>
    <path id="_308039624" class="fil0" d="M347.006 488.071l377.975 377.975c12.4949,12.4949 32.7555,12.4949 45.2504,0 12.4949,-12.4949 12.4949,-32.7555 0,-45.2504l-377.975 -377.975 -45.2504 45.2504z"/>
    <path id="_308039912" class="fil0" d="M447.12 387.957l377.975 377.975c12.4949,12.4949 32.7555,12.4949 45.2504,0 12.4949,-12.4949 12.4949,-32.7555 0,-45.2504l-377.975 -377.975 -45.2504 45.2504z"/>
   </g>
  </g>
  <path class="fil1" d="M1024 261.326c86.9871,0 170.556,14.5984 248.434,41.4189 -31.0051,20.2654 -59.8465,43.8118 -85.8154,69.7808 -74.8146,74.8158 -129.555,173.449 -143.488,279.103 -1.13032,8.5689 -1.97717,17.1496 -2.53819,25.7232 -5.49922,-0.258662 -11.0291,-0.402756 -16.5933,-0.402756 -21.6555,0 -42.8398,2.00079 -63.3969,5.79685 0.0590552,-1.88622 0.145276,-3.74646 0.264567,-5.57599 4.94882,-75.6934 -28.3701,-140.776 -80.9245,-193.331 -5.76024,-5.75906 -11.8181,-11.2724 -17.9244,-16.663l-155.139 -136.958c96.5635,-44.2264 203.96,-68.8914 317.12,-68.8914zm721.44 514.767c26.7059,77.7249 41.2335,161.117 41.2335,247.906 0,159.99 -49.3016,308.446 -133.487,431.083l-249.645 -249.646c-17.5949,-17.5949 -36.8918,-35.8784 -57.3815,-52.1788 16.0441,-39.9508 24.8906,-83.569 24.8906,-129.258 0,-5.44843 -0.140551,-10.8638 -0.389764,-16.252 8.6752,-0.561024 17.3599,-1.41614 26.0315,-2.55945 105.654,-13.9323 204.288,-68.6729 279.104,-143.489 25.911,-25.911 49.4103,-54.6804 69.6438,-85.6064zm-288.36 875.709c-123.011,85.0335 -272.218,134.87 -433.08,134.87 -160.782,0 -309.911,-49.7953 -432.898,-134.745l244.994 -247.043c18.5374,-18.6933 37.2945,-39.026 53.6941,-60.75 41.2866,17.3291 86.628,26.915 134.21,26.915 47.5654,0 92.8938,-9.57875 134.167,-26.8973 16.1138,21.1335 34.4114,40.937 52.5012,59.178l246.411 248.472zm-1062.14 -196.532c-84.2741,-122.66 -133.617,-271.198 -133.617,-431.27 0,-112.812 24.5067,-219.899 68.4756,-316.232l136.736 154.888c5.39056,6.1063 10.9039,12.1642 16.663,17.9244 52.5556,52.5544 117.638,85.8733 193.331,80.9245 1.99725,-0.131102 4.03111,-0.223229 6.09449,-0.279921 -3.72048,20.361 -5.67756,41.3398 -5.67756,62.7756 0,45.854 8.91261,89.6233 25.0689,129.691 -21.0166,16.5803 -40.7965,35.3008 -58.7965,53.2996l-248.279 248.28z"/>
 </g>
 <rect class="fil2" width="2048" height="2048"/>
</svg>
