<?xml version="1.0" encoding="UTF-8"?>
<!DOCTYPE svg PUBLIC "-//W3C//DTD SVG 1.1//EN" "http://www.w3.org/Graphics/SVG/1.1/DTD/svg11.dtd">
<!-- Creator: CorelDRAW -->
<svg xmlns="http://www.w3.org/2000/svg" xml:space="preserve" width="2048px" height="2048px" style="shape-rendering:geometricPrecision; text-rendering:geometricPrecision; image-rendering:optimizeQuality; fill-rule:evenodd; clip-rule:evenodd"
viewBox="0 0 2048 2048"
 xmlns:xlink="http://www.w3.org/1999/xlink">
 <defs>
  <style type="text/css">
   <![CDATA[
    .fil2 {fill:none}
    .fil0 {fill:#8C8C8C}
    .fil1 {fill:#8C8C8C;fill-rule:nonzero}
   ]]>
  </style>
 </defs>
 <g id="Layer_x0020_1">
  <metadata id="CorelCorpID_0Corel-Layer"/>
  <g id="_308041208">
   <path id="_308041736" class="fil0" d="M1038.13 699.96c132.548,0 252.553,53.7296 339.417,140.594 86.8642,86.8654 140.594,206.869 140.594,339.417 0,132.549 -53.7284,252.553 -140.594,339.417 -86.8642,86.8654 -206.868,140.594 -339.417,140.594 -132.549,0 -252.553,-53.7284 -339.417,-140.594 -86.8654,-86.8642 -140.594,-206.868 -140.594,-339.417 0,-132.548 53.7296,-252.552 140.594,-339.417 86.8642,-86.8642 206.869,-140.594 339.417,-140.594zm127.42 352.591c-16.6784,-16.6795 -36.5067,-30.0803 -58.4504,-39.1689 -21.1677,-8.76733 -44.4591,-13.6075 -68.9693,-13.6075 -24.5103,0 -47.8016,4.83898 -68.9693,13.6075 -21.9437,9.08859 -41.7721,22.4894 -58.4516,39.1689 -16.6795,16.6784 -30.0803,36.5079 -39.1689,58.4516 -8.76733,21.1677 -13.6075,44.4591 -13.6075,68.9682 0,24.5091 4.84016,47.8004 13.6075,68.9682 9.08859,21.9437 22.4894,41.7733 39.1689,58.4528 32.6055,32.6055 77.6587,52.7764 127.421,52.7764 24.5091,0 47.8004,-4.84016 68.9682,-13.6075 21.9437,-9.08859 41.7733,-22.4894 58.4516,-39.1689 16.6795,-16.6795 30.0803,-36.5079 39.1689,-58.4516 8.76851,-21.1677 13.6075,-44.4591 13.6075,-68.9693 0,-24.5091 -4.84016,-47.8016 -13.6075,-68.9693 -9.08859,-21.9437 -22.4894,-41.7721 -39.1689,-58.4504zm-46.3252 -68.6682c26.0705,10.7976 49.4563,26.5477 68.9504,46.0429 19.4953,19.4941 35.2453,42.88 46.0429,68.9504 10.3795,25.0583 16.1091,52.4552 16.1091,81.0946 0,28.6406 -5.72835,56.0351 -16.1091,81.0946 -10.7976,26.0717 -26.5488,49.4575 -46.0429,68.9516 -19.4941,19.4953 -42.8811,35.2453 -68.9516,46.0429 -25.0583,10.3795 -52.454,16.1091 -81.0934,16.1091 -58.5957,0 -111.649,-23.7543 -150.046,-62.152 -19.4953,-19.4953 -35.2453,-42.8823 -46.0429,-68.9528 -10.3795,-25.0583 -16.1091,-52.454 -16.1091,-81.0934 0,-28.6394 5.72953,-56.0351 16.1091,-81.0934 10.7976,-26.0705 26.5477,-49.4575 46.0429,-68.9516 19.4941,-19.4941 42.88,-35.2453 68.9516,-46.0429 25.0595,-10.3807 52.454,-16.1091 81.0946,-16.1091 28.6406,0 56.0363,5.72953 81.0946,16.1091z"/>
   <g>
    <path id="_308042336" class="fil1" d="M422.816 564.221c47.1957,0 89.6316,24.5599 120.085,64.265 29.4921,38.4532 47.7343,91.2745 47.7343,149.345l0 0.00236221c-0.0011811,58.0713 -18.2421,110.893 -47.7343,149.343 -30.4536,39.7063 -72.8882,64.265 -120.084,64.265l-0.0011811 0c-47.1957,0 -89.6316,-24.5587 -120.085,-64.265 -29.4921,-38.452 -47.7331,-91.2733 -47.7343,-149.345 0.0011811,-58.0713 18.2421,-110.893 47.7343,-149.345 30.4536,-39.7063 72.8882,-64.2662 120.085,-64.2662zm0 54.2374c-2.36103,0 -4.27677,1.91575 -4.27677,4.27677 0,2.36103 1.91575,4.27677 4.27677,4.27677 16.0819,0 31.3784,4.10906 45.2918,11.5559 14.5654,7.79646 27.6307,19.2295 38.5205,33.4276 10.6063,13.8295 19.161,30.3213 25.011,48.6213 5.63741,17.6374 8.74843,36.965 8.74843,57.2138 0,2.36221 1.91575,4.27677 4.27677,4.27677 2.36103,0 4.27677,-1.91457 4.27677,-4.27677 0,-21.111 -3.26221,-41.3174 -9.17363,-59.8123 -6.14646,-19.2284 -15.1701,-36.6036 -26.3823,-51.2209 -11.6433,-15.1784 -25.6276,-27.4122 -41.237,-35.7662 -15.1382,-8.10119 -31.7977,-12.5728 -49.3323,-12.5728z"/>
    <path id="_308042168" class="fil1" d="M441.942 983.629c0,-9.44765 -8.05276,-16.7126 -17.4992,-16.7126 -9.44765,0 -17.1071,7.65945 -17.1071,17.1059l0 146.548c0,91.852 -39.887,58.1575 -40.2449,170.117l-1.1811 283.7 0 0.0011811c0,15.7335 6.42402,30.026 16.7717,40.3737 10.35,10.35 24.6414,16.774 40.3748,16.774l0 0 0.00236221 0c15.7335,0 30.026,-6.42402 40.3748,-16.774 10.3488,-10.3488 17.1662,-24.2469 17.1662,-39.9803l0.0011811 -286.063c0,-119.307 -39.052,-71.5902 -39.052,-173.661l0.393307 -141.428z"/>
   </g>
   <g>
    <path id="_308041376" class="fil1" d="M1523.06 588.051c0.115748,-1.89331 0.519685,-3.70158 1.16457,-5.38347l33.8386 0c0.903544,2.34803 1.32874,4.92048 1.16575,7.59449l-12.0945 194.317c-0.18189,2.91614 -0.270473,6.44764 -0.270473,10.5602 -0.777166,57.2941 51.8528,82.3394 104.599,81.0024l0.283465 -0.00590552 0.284646 0.00590552c52.7457,1.33701 105.374,-23.7083 104.599,-81.0024 -0.0011811,-4.1126 -0.0885827,-7.6441 -0.271654,-10.5602l-12.0933 -194.317c-0.164173,-2.67402 0.262205,-5.24646 1.16457,-7.59449l33.8398 0c0.643701,1.68189 1.04764,3.49016 1.16339,5.38347l12.0957 194.319c0.316536,5.08701 0.47126,9.33308 0.47126,12.7701 0,44.3008 -15.0768,75.5741 -38.98,96.5446 -23.4071,20.5347 -74.863,91.656 -90.7914,135.436 -4.20591,0.262205 -7.98662,0.416929 -11.3516,0.472441l-0.129921 0.0011811 -0.12874 -0.0011811c-3.36614,-0.0555119 -7.14567,-0.210236 -11.3528,-0.472441 -15.9284,-43.78 -67.3831,-114.901 -90.7902,-135.436 -23.9043,-20.9705 -38.98,-52.2437 -38.98,-96.5446 0,-3.43701 0.154725,-7.68308 0.47126,-12.7701l12.0945 -194.319z"/>
    <path id="_308041352" class="fil1" d="M1672.34 960.596c0,-10.0429 -8.56064,-17.7673 -18.6036,-17.7673 -10.0429,0 -18.1854,8.14253 -18.1854,18.1854l0.0011811 155.786c0,97.643 -42.4028,61.8249 -42.7831,180.843l-1.25551 301.586 0 0.0011811c0,16.7256 6.82796,31.9181 17.8288,42.9189 11.002,11.002 26.1957,17.8311 42.9201,17.8311l0.0011811 0 0.0011811 0c16.7268,0 31.9193,-6.82914 42.9213,-17.8311 11.0008,-11.0008 18.248,-25.7752 18.248,-42.5008l0 -304.099c0,-126.829 -41.5134,-76.1044 -41.5134,-184.611l0.419292 -150.344z"/>
    <path id="_308041112" class="fil1" d="M1595.32 582.668l0 303.796c0,10.0429 8.14134,18.1854 18.1843,18.1854 10.0429,0 18.1854,-8.14253 18.1854,-18.1854l0 -303.796 -36.3697 0z"/>
    <path id="_308041400" class="fil1" d="M1675.78 582.668l0 303.796c0,10.0429 8.14134,18.1854 18.1843,18.1854 10.0429,0 18.1854,-8.14253 18.1854,-18.1854l0 -303.796 -36.3697 0z"/>
   </g>
   <path id="_308041184" class="fil1" d="M763.411 552.213c-100.792,-13.9701 -195.64,-50.5063 -252.318,-108.905 -7.25552,-7.47402 -26.8618,-27.9567 -26.8559,-38.6256 0.00708662,-9.2067 7.47638,-16.6677 16.6831,-16.6618l1025.76 1.39843c5.09056,-0.236221 10.226,1.85197 13.702,6.09686 -0.138189,1.51536 21.0225,27.3851 20.3882,52.9441 -0.425197,17.2134 -7.30276,33.704 -19.5331,49.9311 -2.99882,4.47992 -8.10946,7.42796 -13.9039,7.41969l0 -0.0188977c-118.495,-0.159449 -237.07,-0.827953 -355.561,-1.84134 -7.30512,0.64252 -14.4272,-3.6189 -17.1036,-10.8248l0.0519685 -0.0212599c-6.7252,-18.104 -13.0547,-21.515 -18.248,-19.5839 -8.18977,3.0378 -17.5028,12.6413 -23.4272,18.7512 -4.44331,4.58268 -7.98071,8.22993 -12.4075,10.0441 -87.0249,50.8583 -217.191,66.5339 -337.225,49.8969z"/>
  </g>
 </g>
 <rect class="fil2" width="2048" height="2048"/>
</svg>
