<?xml version="1.0" encoding="utf-8"?>
<!-- Generator: Adobe Illustrator 20.0.0, SVG Export Plug-In . SVG Version: 6.00 Build 0)  -->
<svg version="1.1" xmlns="http://www.w3.org/2000/svg" xmlns:xlink="http://www.w3.org/1999/xlink" x="0px" y="0px"
	 viewBox="0 0 44 44" style="enable-background:new 0 0 44 44;" xml:space="preserve" fill="#8C8C8C">
<g id="strawberry">
</g>
<g id="grapes">
</g>
<g id="bread">
</g>
<g id="cheese">
</g>
<g id="ice_x5F_cream">
</g>
<g id="chicken">
</g>
<g id="egg">
</g>
<g id="avocado">
</g>
<g id="carrot">
</g>
<g id="coffee">
</g>
<g id="wine">
</g>
<g id="orange">
</g>
<g id="beer">
</g>
<g id="burger">
</g>
<g id="milk">
</g>
<g id="alcohol">
</g>
<g id="onion">
</g>
<g id="pizza">
</g>
<g id="apple">
</g>
<g id="gluten">
</g>
<g id="fridge">
</g>
<g id="cleaver">
</g>
<g id="grater">
</g>
<g id="microwave">
</g>
<g id="toaster">
</g>
<g id="pot">
</g>
<g id="french_x5F_press">
</g>
<g id="blender">
</g>
<g id="cutlery">
	<g>
		<path d="M6,12c0.6,0,1-0.4,1-1V1c0-0.6-0.4-1-1-1S5,0.4,5,1v10C5,11.6,5.4,12,6,12z"/>
		<path d="M11.3,4.6c-0.1-0.5-0.2-2.8-0.3-3.6c0-0.6-0.5-1-1.1-0.9C9.4,0,9,0.5,9,1.1c0,0.3,0.2,3.1,0.3,3.7L10,10
			c0.1,0.9-0.2,1.8-0.9,2.4c-0.3,0.3-0.8,0.6-1.2,0.7c-0.8,0.2-1.4,0.7-1.9,1.3c-0.5-0.6-1.1-1-1.9-1.3c-0.5-0.1-0.9-0.4-1.2-0.7
			c-0.7-0.6-1-1.5-0.9-2.4l0.7-5.2C2.8,4.2,3,1.4,3,1.1C3,0.5,2.6,0,2.1,0C1.5,0,1,0.4,1,0.9C0.9,1.8,0.8,4.1,0.7,4.6L0,9.7
			c-0.2,1.5,0.4,3,1.5,4.1c0.6,0.5,1.2,0.9,2,1.2C4.4,15.3,5,16.1,5,17v7c0,0.3,0.1,0.5,0.3,0.7l0.5,0.5C6.6,26,7,27,7,28.1V41
			c0,0.6-0.4,1-1,1s-1-0.4-1-1V27c0-0.6-0.4-1-1-1s-1,0.4-1,1v14c0,1.7,1.3,3,3,3s3-1.3,3-3V28.1c0-1.6-0.6-3.1-1.8-4.2L7,23.6V17
			c0-0.9,0.6-1.7,1.5-2c0.7-0.2,1.4-0.6,2-1.2c1.1-1.1,1.7-2.6,1.5-4.1L11.3,4.6z"/>
		<path d="M23,0C23,0,23,0,23,0L23,0c-4.2,0-5.5,2.1-6.2,5.4c-0.4,1.7-0.8,6.6-0.8,6.9c0,2.8,2,4.9,5.2,5.5c0.5,0.1,0.8,0.5,0.8,1
			V24c0,0.3,0.1,0.5,0.3,0.7l0.5,0.5C23.6,26,24,27,24,28.1V41c0,0.6-0.4,1-1,1s-1-0.4-1-1V27c0-0.6-0.4-1-1-1s-1,0.4-1,1v14
			c0,1.7,1.3,3,3,3s3-1.3,3-3V28.1c0-1.6-0.6-3.1-1.8-4.2L24,23.6v-4.8c0-0.5,0.3-0.9,0.8-1c3.2-0.6,5.2-2.7,5.2-5.6
			c0-0.2-0.4-5.1-0.8-6.8C28.5,2.1,27.2,0,23,0z M24.4,15.9c-0.5,0.1-1,0.4-1.4,0.7c-0.4-0.4-0.9-0.6-1.4-0.7
			c-2.2-0.4-3.6-1.7-3.6-3.5c0,0,0.4-5,0.7-6.5C19.4,2.8,20.3,2,23,2l0,0c0,0,0,0,0,0c2.7,0,3.6,0.8,4.3,3.9
			c0.3,1.5,0.7,6.4,0.7,6.4C28,14.1,26.7,15.5,24.4,15.9z"/>
		<path d="M35.7,0.2c-0.3-0.3-0.7-0.3-1.1-0.2C34.2,0.3,34,0.6,34,1v40c0,1.7,1.3,3,3,3s3-1.3,3-3v-9.8c0-1.1-0.4-2.1-1.2-2.8
			c-0.4-0.4-1-0.4-1.4,0c-0.4,0.4-0.4,1,0,1.4c0.4,0.4,0.6,0.9,0.6,1.4V41c0,0.6-0.4,1-1,1s-1-0.4-1-1V3.4c3.8,4.1,6,9.6,6,15.3V25
			h-3c-0.6,0-1,0.4-1,1s0.4,1,1,1h4c0.6,0,1-0.4,1-1v-7.4C44,11.6,41,4.9,35.7,0.2z"/>
	</g>
</g>
<g id="slicer">
</g>
<g id="grinder">
</g>
<g id="weight">
</g>
<g id="mixer">
</g>
<g id="dishwasher">
</g>
<g id="kettle">
</g>
<g id="tea">
</g>
<g id="chef">
</g>
<g id="coffee_x5F_maker">
</g>
<g id="corkscrew">
</g>
<g id="dish">
</g>
</svg>
